<svg width="271" height="114" viewBox="0 0 271 114" fill="none" xmlns="http://www.w3.org/2000/svg">
<path d="M156.4 57C156.4 88.4802 181.92 114 213.4 114C244.881 114 270.4 88.4802 270.4 57C270.4 25.5198 244.881 0 213.4 0C181.92 0 156.4 25.5198 156.4 57ZM267.55 57C267.55 86.9062 243.307 111.15 213.4 111.15C183.494 111.15 159.25 86.9062 159.25 57C159.25 27.0938 183.494 2.85 213.4 2.85C243.307 2.85 267.55 27.0938 267.55 57Z" fill="#A7FF4F"/>
<path d="M220.707 57.7071C221.098 57.3165 221.098 56.6834 220.707 56.2928L214.343 49.9289C213.953 49.5384 213.319 49.5384 212.929 49.9289C212.538 50.3194 212.538 50.9526 212.929 51.3431L218.586 57L212.929 62.6568C212.538 63.0473 212.538 63.6805 212.929 64.071C213.319 64.4615 213.953 64.4615 214.343 64.071L220.707 57.7071ZM2.1203e-07 58L220 58L220 56L-2.1203e-07 56L2.1203e-07 58Z" fill="white"/>
</svg>
