<?xml version="1.0" encoding="utf-8"?><svg viewBox="0 0 1293 835" xmlns="http://www.w3.org/2000/svg" xmlns:xlink="http://www.w3.org/1999/xlink"><style>:root>svg{display:none}:root>svg:target{display:block}</style><svg fill="none" viewBox="0 0 88 16" id="arr" xmlns="http://www.w3.org/2000/svg"><path d="M87.707 8.707a1 1 0 000-1.414L81.343.929a1 1 0 10-1.414 1.414L85.586 8l-5.657 5.657a1 1 0 001.414 1.414l6.364-6.364zM0 9h87V7H0v2z" fill="#fff"/></svg><svg fill="none" viewBox="0 0 271 114" id="arrcircle" xmlns="http://www.w3.org/2000/svg"><path d="M156.4 57c0 31.48 25.52 57 57 57 31.481 0 57-25.52 57-57s-25.519-57-57-57c-31.48 0-57 25.52-57 57zm111.15 0c0 29.906-24.243 54.15-54.15 54.15-29.906 0-54.15-24.244-54.15-54.15S183.494 2.85 213.4 2.85c29.907 0 54.15 24.244 54.15 54.15z" fill="#A7FF4F"/><path d="M220.707 57.707a1 1 0 000-1.414l-6.364-6.364a1 1 0 10-1.414 1.414L218.586 57l-5.657 5.657a1 1 0 101.414 1.414l6.364-6.364zM0 58h220v-2H0v2z" fill="#fff"/></svg><svg fill="none" viewBox="0 0 115 114" id="arrow-slider" xmlns="http://www.w3.org/2000/svg"><path d="M.4 57c0 31.48 25.52 57 57 57s57-25.52 57-57-25.52-57-57-57S.4 25.52.4 57zm111.15 0c0 29.906-24.243 54.15-54.15 54.15-29.906 0-54.15-24.244-54.15-54.15S27.494 2.85 57.4 2.85c29.907 0 54.15 24.244 54.15 54.15z" fill="#A7FF4F"/></svg><svg fill="none" viewBox="0 0 133 136" id="circle-green" xmlns="http://www.w3.org/2000/svg"><path d="M133 68c0 37.555-29.773 68-66.5 68C29.773 136 0 105.555 0 68S29.773 0 66.5 0C103.227 0 133 30.445 133 68zM23.386 68c0 24.349 19.303 44.087 43.114 44.087 23.811 0 43.114-19.739 43.114-44.087 0-24.349-19.303-44.087-43.114-44.087-23.811 0-43.114 19.738-43.114 44.087z" fill="#A7FF4F"/></svg><svg fill="none" viewBox="0 0 183 186" id="circle-red" xmlns="http://www.w3.org/2000/svg"><g filter="url(#efilter0_f_1_278)"><path d="M158 93c0 37.555-29.773 68-66.5 68C54.773 161 25 130.555 25 93s29.773-68 66.5-68c36.727 0 66.5 30.445 66.5 68zM48.386 93c0 24.348 19.303 44.087 43.114 44.087 23.811 0 43.114-19.739 43.114-44.087 0-24.349-19.303-44.087-43.114-44.087-23.811 0-43.114 19.739-43.114 44.087z" fill="#AB3E22"/></g><defs><filter id="efilter0_f_1_278" x="0" y="0" width="183" height="186" filterUnits="userSpaceOnUse" color-interpolation-filters="sRGB"><feFlood flood-opacity="0" result="BackgroundImageFix"/><feBlend in="SourceGraphic" in2="BackgroundImageFix" result="shape"/><feGaussianBlur stdDeviation="12.5" result="effect1_foregroundBlur_1_278"/></filter></defs></svg><svg fill="none" viewBox="0 0 11 11" id="cube" xmlns="http://www.w3.org/2000/svg"><path fill="#F0BC05" d="M.967.967H11V11H.967z"/></svg><svg fill="none" viewBox="0 0 30 30" id="facebook" xmlns="http://www.w3.org/2000/svg"><path d="M22.5 2.5h-3.75a6.25 6.25 0 00-6.25 6.25v3.75H8.75v5h3.75v10h5v-10h3.75l1.25-5h-5V8.75a1.25 1.25 0 011.25-1.25h3.75v-5z" stroke="#fff" stroke-width="1.7" stroke-linecap="round" stroke-linejoin="round"/></svg><svg fill="none" viewBox="0 0 945 761" id="figure-conditii" xmlns="http://www.w3.org/2000/svg"><g filter="url(#hfilter0_f_110_2)" fill="#AB3E22"><path d="M493.919 690.77l-19.472-5.218 15.07-56.242 19.472 5.218z"/><path d="M509.066 633.96l-5.218 19.472-56.72-15.198 5.217-19.472z"/></g><g filter="url(#hfilter1_f_110_2)" fill="#D4FF7C"><path d="M76.249 717.764l-6.703 11.609-59.052-34.094 6.702-11.61z"/><path d="M54.721 673.453l11.61 6.702-34.095 59.053-11.609-6.703z"/></g><g filter="url(#hfilter2_f_110_2)" fill="#F0BC05"><path d="M324.883 418.089l-11.478 19.881-101.135-58.39L223.75 359.7z"/><path d="M288.016 342.201l19.881 11.478-58.39 101.135-19.881-11.479z"/></g><g filter="url(#hfilter3_f_110_2)"><path d="M831.253 722.759l23.617-88.142 64.524 64.525-88.141 23.617z" fill="#F0BC05"/></g><g filter="url(#hfilter4_f_110_2)"><circle cx="352" cy="82" r="39" fill="#AB3E22"/></g><g filter="url(#hfilter5_f_110_2)" fill="#F0BC05"><path d="M785.905 24.89l19.753-4.027 11.63 57.053-19.752 4.027z"/><path d="M797.72 82.486l-4.027-19.753 57.539-11.73 4.027 19.752z"/></g><defs><filter id="hfilter0_f_110_2" x="427.128" y="598.761" width="101.938" height="112.009" filterUnits="userSpaceOnUse" color-interpolation-filters="sRGB"><feFlood flood-opacity="0" result="BackgroundImageFix"/><feBlend in="SourceGraphic" in2="BackgroundImageFix" result="shape"/><feGaussianBlur stdDeviation="10" result="effect1_foregroundBlur_110_2"/></filter><filter id="hfilter1_f_110_2" x=".493" y="663.453" width="85.755" height="85.755" filterUnits="userSpaceOnUse" color-interpolation-filters="sRGB"><feFlood flood-opacity="0" result="BackgroundImageFix"/><feBlend in="SourceGraphic" in2="BackgroundImageFix" result="shape"/><feGaussianBlur stdDeviation="5" result="effect1_foregroundBlur_110_2"/></filter><filter id="hfilter2_f_110_2" x="202.27" y="332.201" width="132.613" height="132.613" filterUnits="userSpaceOnUse" color-interpolation-filters="sRGB"><feFlood flood-opacity="0" result="BackgroundImageFix"/><feBlend in="SourceGraphic" in2="BackgroundImageFix" result="shape"/><feGaussianBlur stdDeviation="5" result="effect1_foregroundBlur_110_2"/></filter><filter id="hfilter3_f_110_2" x="806.253" y="609.617" width="138.141" height="138.142" filterUnits="userSpaceOnUse" color-interpolation-filters="sRGB"><feFlood flood-opacity="0" result="BackgroundImageFix"/><feBlend in="SourceGraphic" in2="BackgroundImageFix" result="shape"/><feGaussianBlur stdDeviation="12.5" result="effect1_foregroundBlur_110_2"/></filter><filter id="hfilter4_f_110_2" x="288" y="18" width="128" height="128" filterUnits="userSpaceOnUse" color-interpolation-filters="sRGB"><feFlood flood-opacity="0" result="BackgroundImageFix"/><feBlend in="SourceGraphic" in2="BackgroundImageFix" result="shape"/><feGaussianBlur stdDeviation="12.5" result="effect1_foregroundBlur_110_2"/></filter><filter id="hfilter5_f_110_2" x="765.905" y=".863" width="109.354" height="101.623" filterUnits="userSpaceOnUse" color-interpolation-filters="sRGB"><feFlood flood-opacity="0" result="BackgroundImageFix"/><feBlend in="SourceGraphic" in2="BackgroundImageFix" result="shape"/><feGaussianBlur stdDeviation="10" result="effect1_foregroundBlur_110_2"/></filter></defs></svg><svg fill="none" viewBox="0 0 1210 666" id="figure-echipa" xmlns="http://www.w3.org/2000/svg"><g filter="url(#ifilter0_f_128_4)" fill="#F0BC05"><path d="M96.492 553.552l15.298 15.298-76.492 76.492L20 630.044z"/><path d="M20 566.298L35.3 551l76.491 76.492-15.298 15.298z"/></g><g filter="url(#ifilter1_f_128_4)"><path d="M1185 93c0 37.555-29.77 68-66.5 68-36.73 0-66.5-30.445-66.5-68s29.77-68 66.5-68c36.73 0 66.5 30.445 66.5 68zm-109.61 0c0 24.348 19.3 44.087 43.11 44.087s43.11-19.739 43.11-44.087c0-24.349-19.3-44.087-43.11-44.087S1075.39 68.652 1075.39 93z" fill="#AB3E22"/></g><g filter="url(#ifilter2_f_128_4)" fill="#A7FF4F"><path d="M595.144 179.288l-6.103 10.572-30.537-17.63 6.104-10.572z"/><path d="M564.288 161.524l10.572 6.103-17.78 30.795-10.571-6.103z"/></g><defs><filter id="ifilter0_f_128_4" x="0" y="531" width="131.791" height="134.342" filterUnits="userSpaceOnUse" color-interpolation-filters="sRGB"><feFlood flood-opacity="0" result="BackgroundImageFix"/><feBlend in="SourceGraphic" in2="BackgroundImageFix" result="shape"/><feGaussianBlur stdDeviation="10" result="effect1_foregroundBlur_128_4"/></filter><filter id="ifilter1_f_128_4" x="1027" y="0" width="183" height="186" filterUnits="userSpaceOnUse" color-interpolation-filters="sRGB"><feFlood flood-opacity="0" result="BackgroundImageFix"/><feBlend in="SourceGraphic" in2="BackgroundImageFix" result="shape"/><feGaussianBlur stdDeviation="12.5" result="effect1_foregroundBlur_128_4"/></filter><filter id="ifilter2_f_128_4" x="526.508" y="141.524" width="88.636" height="76.899" filterUnits="userSpaceOnUse" color-interpolation-filters="sRGB"><feFlood flood-opacity="0" result="BackgroundImageFix"/><feBlend in="SourceGraphic" in2="BackgroundImageFix" result="shape"/><feGaussianBlur stdDeviation="10" result="effect1_foregroundBlur_128_4"/></filter></defs></svg><svg fill="none" viewBox="0 0 652 752" id="figure-hero" xmlns="http://www.w3.org/2000/svg"><g filter="url(#jfilter0_f_110_2)" fill="#AB3E22"><path d="M423.41 570.083h-15.34v-44.307h15.34z"/><path d="M423.355 525.342v15.34h-44.684v-15.34z"/></g><g filter="url(#jfilter1_f_110_2)" fill="#A7FF4F"><path d="M80.212 127.138l-13.877 6.538-18.885-40.08 13.877-6.54z"/><path d="M61.092 86.689l6.538 13.876-40.422 19.046-6.538-13.877z"/></g><g filter="url(#jfilter2_f_110_2)" fill="#F0BC05"><path d="M212.492 460.552l15.298 15.298-76.492 76.492L136 537.044z"/><path d="M136.001 473.298L151.299 458l76.492 76.492-15.298 15.298z"/></g><g filter="url(#jfilter3_f_110_2)"><path d="M317.5 20l9.777 26.409L350.71 30.79l-7.613 27.112 28.138 1.138L349.14 76.5l22.095 17.46-28.138 1.138 7.613 27.111-23.433-15.618L317.5 133l-9.777-26.409-23.433 15.618 7.613-27.112-28.138-1.137L285.86 76.5l-22.095-17.46 28.138-1.137-7.613-27.112 23.433 15.618L317.5 20z" fill="#F0BC05"/></g><g filter="url(#jfilter4_f_110_2)"><path d="M561.5 619l9.777 26.409 23.433-15.618-7.613 27.111 28.138 1.139L593.14 675.5l22.095 17.459-28.138 1.139 7.613 27.111-23.433-15.618L561.5 732l-9.777-26.409-23.433 15.618 7.613-27.111-28.138-1.139L529.86 675.5l-22.095-17.459 28.138-1.139-7.613-27.111 23.433 15.618L561.5 619z" fill="#F0BC05"/></g><g filter="url(#jfilter5_f_110_2)"><path d="M637 143c0 18.225-14.551 33-32.5 33-17.949 0-32.5-14.775-32.5-33s14.551-33 32.5-33c17.949 0 32.5 14.775 32.5 33zm-53.571 0c0 11.816 9.434 21.395 21.071 21.395 11.637 0 21.071-9.579 21.071-21.395 0-11.816-9.434-21.395-21.071-21.395-11.637 0-21.071 9.579-21.071 21.395z" fill="#AB3E22"/></g><g filter="url(#jfilter6_f_110_2)"><path d="M84 648c0 14.912-11.865 27-26.5 27-14.636 0-26.5-12.088-26.5-27s11.864-27 26.5-27c14.635 0 26.5 12.088 26.5 27zm-43.68 0c0 9.668 7.691 17.505 17.18 17.505S74.68 657.668 74.68 648s-7.691-17.505-17.18-17.505S40.32 638.332 40.32 648z" fill="#AB3E22"/></g><g filter="url(#jfilter7_f_110_2)" fill="#A7FF4F"><path d="M622.942 487.467l8.789 8.789-43.942 43.941L579 531.41z"/><path d="M579 494.788l8.789-8.789 43.941 43.942-8.788 8.789z"/></g><defs><filter id="jfilter0_f_110_2" x="358.671" y="505.342" width="84.74" height="84.741" filterUnits="userSpaceOnUse" color-interpolation-filters="sRGB"><feFlood flood-opacity="0" result="BackgroundImageFix"/><feBlend in="SourceGraphic" in2="BackgroundImageFix" result="shape"/><feGaussianBlur stdDeviation="10" result="effect1_foregroundBlur_110_2"/></filter><filter id="jfilter1_f_110_2" x=".67" y="66.689" width="99.542" height="86.988" filterUnits="userSpaceOnUse" color-interpolation-filters="sRGB"><feFlood flood-opacity="0" result="BackgroundImageFix"/><feBlend in="SourceGraphic" in2="BackgroundImageFix" result="shape"/><feGaussianBlur stdDeviation="10" result="effect1_foregroundBlur_110_2"/></filter><filter id="jfilter2_f_110_2" x="116" y="438" width="131.791" height="134.343" filterUnits="userSpaceOnUse" color-interpolation-filters="sRGB"><feFlood flood-opacity="0" result="BackgroundImageFix"/><feBlend in="SourceGraphic" in2="BackgroundImageFix" result="shape"/><feGaussianBlur stdDeviation="10" result="effect1_foregroundBlur_110_2"/></filter><filter id="jfilter3_f_110_2" x="243.765" y="0" width="147.469" height="153" filterUnits="userSpaceOnUse" color-interpolation-filters="sRGB"><feFlood flood-opacity="0" result="BackgroundImageFix"/><feBlend in="SourceGraphic" in2="BackgroundImageFix" result="shape"/><feGaussianBlur stdDeviation="10" result="effect1_foregroundBlur_110_2"/></filter><filter id="jfilter4_f_110_2" x="487.765" y="599" width="147.469" height="153" filterUnits="userSpaceOnUse" color-interpolation-filters="sRGB"><feFlood flood-opacity="0" result="BackgroundImageFix"/><feBlend in="SourceGraphic" in2="BackgroundImageFix" result="shape"/><feGaussianBlur stdDeviation="10" result="effect1_foregroundBlur_110_2"/></filter><filter id="jfilter5_f_110_2" x="557" y="95" width="95" height="96" filterUnits="userSpaceOnUse" color-interpolation-filters="sRGB"><feFlood flood-opacity="0" result="BackgroundImageFix"/><feBlend in="SourceGraphic" in2="BackgroundImageFix" result="shape"/><feGaussianBlur stdDeviation="7.5" result="effect1_foregroundBlur_110_2"/></filter><filter id="jfilter6_f_110_2" x="16" y="606" width="83" height="84" filterUnits="userSpaceOnUse" color-interpolation-filters="sRGB"><feFlood flood-opacity="0" result="BackgroundImageFix"/><feBlend in="SourceGraphic" in2="BackgroundImageFix" result="shape"/><feGaussianBlur stdDeviation="7.5" result="effect1_foregroundBlur_110_2"/></filter><filter id="jfilter7_f_110_2" x="564" y="471" width="82.73" height="84.197" filterUnits="userSpaceOnUse" color-interpolation-filters="sRGB"><feFlood flood-opacity="0" result="BackgroundImageFix"/><feBlend in="SourceGraphic" in2="BackgroundImageFix" result="shape"/><feGaussianBlur stdDeviation="7.5" result="effect1_foregroundBlur_110_2"/></filter></defs></svg><svg fill="none" viewBox="0 0 1097 541" id="figure-lucru" xmlns="http://www.w3.org/2000/svg"><g filter="url(#kfilter0_f_111_3)" fill="#D4FF7C"><path d="M1086.25 54.764l-6.702 11.61-59.053-34.095 6.703-11.609z"/><path d="M1064.72 10.453l11.61 6.703-34.095 59.052-11.609-6.702z"/></g><g filter="url(#kfilter1_f_111_3)"><path d="M37.253 363.759l23.617-88.142 64.524 64.525-88.141 23.617z" fill="#F0BC05"/></g><g filter="url(#kfilter2_f_111_3)"><circle cx="947" cy="477" r="39" fill="#AB3E22"/></g><defs><filter id="kfilter0_f_111_3" x="1010.49" y=".453" width="85.755" height="85.755" filterUnits="userSpaceOnUse" color-interpolation-filters="sRGB"><feFlood flood-opacity="0" result="BackgroundImageFix"/><feBlend in="SourceGraphic" in2="BackgroundImageFix" result="shape"/><feGaussianBlur stdDeviation="5" result="effect1_foregroundBlur_111_3"/></filter><filter id="kfilter1_f_111_3" x="12.253" y="250.617" width="138.141" height="138.142" filterUnits="userSpaceOnUse" color-interpolation-filters="sRGB"><feFlood flood-opacity="0" result="BackgroundImageFix"/><feBlend in="SourceGraphic" in2="BackgroundImageFix" result="shape"/><feGaussianBlur stdDeviation="12.5" result="effect1_foregroundBlur_111_3"/></filter><filter id="kfilter2_f_111_3" x="883" y="413" width="128" height="128" filterUnits="userSpaceOnUse" color-interpolation-filters="sRGB"><feFlood flood-opacity="0" result="BackgroundImageFix"/><feBlend in="SourceGraphic" in2="BackgroundImageFix" result="shape"/><feGaussianBlur stdDeviation="12.5" result="effect1_foregroundBlur_111_3"/></filter></defs></svg><svg fill="none" viewBox="0 0 1293 835" id="figure-sezon" xmlns="http://www.w3.org/2000/svg"><g filter="url(#lfilter0_f_116_4)"><path d="M37.253 817.759l23.617-88.142 64.524 64.524-88.141 23.618z" fill="#A7FF4F"/></g><g filter="url(#lfilter1_f_116_4)"><path d="M1120.5 298l14.58 93.08 59.17-73.319-33.91 87.901 87.9-33.912-73.32 59.168L1268 445.5l-93.08 14.582 73.32 59.168-87.9-33.912 33.91 87.901-59.17-73.319L1120.5 593l-14.58-93.08-59.17 73.319 33.91-87.901-87.899 33.912 73.319-59.168L973 445.5l93.08-14.582-73.319-59.168 87.899 33.912-33.91-87.901 59.17 73.319L1120.5 298z" fill="#F0BC05"/></g><g filter="url(#lfilter2_f_116_4)" fill="#A7FF4F"><path d="M934.693 120.768l19.753-4.027 11.63 57.053-19.752 4.027z"/><path d="M946.509 178.363l-4.027-19.753 57.538-11.73 4.027 19.753z"/></g><g filter="url(#lfilter3_f_116_4)"><circle cx="319" cy="64" r="39" fill="#A7FF4F"/></g><defs><filter id="lfilter0_f_116_4" x="12.253" y="704.617" width="138.141" height="138.142" filterUnits="userSpaceOnUse" color-interpolation-filters="sRGB"><feFlood flood-opacity="0" result="BackgroundImageFix"/><feBlend in="SourceGraphic" in2="BackgroundImageFix" result="shape"/><feGaussianBlur stdDeviation="12.5" result="effect1_foregroundBlur_116_4"/></filter><filter id="lfilter1_f_116_4" x="948" y="273" width="345" height="345" filterUnits="userSpaceOnUse" color-interpolation-filters="sRGB"><feFlood flood-opacity="0" result="BackgroundImageFix"/><feBlend in="SourceGraphic" in2="BackgroundImageFix" result="shape"/><feGaussianBlur stdDeviation="12.5" result="effect1_foregroundBlur_116_4"/></filter><filter id="lfilter2_f_116_4" x="914.693" y="96.741" width="109.354" height="101.623" filterUnits="userSpaceOnUse" color-interpolation-filters="sRGB"><feFlood flood-opacity="0" result="BackgroundImageFix"/><feBlend in="SourceGraphic" in2="BackgroundImageFix" result="shape"/><feGaussianBlur stdDeviation="10" result="effect1_foregroundBlur_116_4"/></filter><filter id="lfilter3_f_116_4" x="255" y="0" width="128" height="128" filterUnits="userSpaceOnUse" color-interpolation-filters="sRGB"><feFlood flood-opacity="0" result="BackgroundImageFix"/><feBlend in="SourceGraphic" in2="BackgroundImageFix" result="shape"/><feGaussianBlur stdDeviation="12.5" result="effect1_foregroundBlur_116_4"/></filter></defs></svg><svg fill="none" viewBox="0 0 30 30" id="instagram" xmlns="http://www.w3.org/2000/svg"><path d="M21.25 2.5H8.75A6.25 6.25 0 002.5 8.75v12.5a6.25 6.25 0 006.25 6.25h12.5a6.25 6.25 0 006.25-6.25V8.75a6.25 6.25 0 00-6.25-6.25z" stroke="#fff" stroke-width="2" stroke-linecap="round" stroke-linejoin="round"/><path d="M20 14.213a5 5 0 11-9.891 1.467A5 5 0 0120 14.213zM21.875 8.125h.012" stroke="#fff" stroke-width="2" stroke-linecap="round" stroke-linejoin="round"/></svg><svg fill="none" viewBox="0 0 30 30" id="phone" xmlns="http://www.w3.org/2000/svg"><path d="M18.813 6.25a6.25 6.25 0 014.937 4.938M18.812 1.25a11.25 11.25 0 019.938 9.925M27.5 21.15v3.75a2.5 2.5 0 01-2.725 2.5 24.737 24.737 0 01-10.787-3.837 24.376 24.376 0 01-7.5-7.5A24.737 24.737 0 012.65 5.225 2.5 2.5 0 015.138 2.5h3.75a2.5 2.5 0 012.5 2.15c.158 1.2.451 2.378.874 3.512A2.5 2.5 0 0111.7 10.8l-1.587 1.587a20 20 0 007.5 7.5L19.2 18.3a2.5 2.5 0 012.637-.563c1.135.424 2.313.717 3.513.876a2.5 2.5 0 012.15 2.537z" stroke="#fff" stroke-width="1.7" stroke-linecap="round" stroke-linejoin="round"/></svg><svg fill="none" viewBox="0 0 64 64" id="plus-green" xmlns="http://www.w3.org/2000/svg"><path fill="#A7FF4F" d="M58.577 26.504v10.354H5.907V26.504z"/><path fill="#A7FF4F" d="M27.064 5.177h10.354v52.67H27.064z"/></svg><svg fill="none" viewBox="0 0 145 151" id="star-orange" xmlns="http://www.w3.org/2000/svg"><path d="M72.5 0l13.065 35.29 31.313-20.87-10.173 36.228 37.6 1.521L114.78 75.5l29.525 23.33-37.6 1.522 10.173 36.229-31.313-20.87L72.5 151l-13.065-35.289-31.313 20.87 10.173-36.229-37.6-1.521L30.22 75.5.695 52.17l37.6-1.522L28.122 14.42l31.313 20.87L72.5 0z" fill="#F0BC05"/></svg><svg fill="none" viewBox="0 0 245 245" id="star-orange-big" xmlns="http://www.w3.org/2000/svg"><path d="M122.5 0l12.11 77.303 49.14-60.891-28.164 73.002 73.002-28.164-60.892 49.14L245 122.5l-77.304 12.11 60.892 49.14-73.002-28.164 28.164 73.002-49.14-60.892L122.5 245l-12.11-77.304-49.14 60.892 28.164-73.002-73.002 28.164 60.892-49.14L0 122.5l77.303-12.11-60.891-49.14 73.002 28.164L61.25 16.412l49.14 60.892L122.5 0z" fill="#F0BC05"/></svg><svg fill="none" viewBox="0 0 295 295" id="star-red" xmlns="http://www.w3.org/2000/svg"><path d="M147.5 0l14.582 93.08L221.25 19.76l-33.912 87.901 87.901-33.912-73.319 59.168L295 147.5l-93.08 14.582 73.319 59.168-87.901-33.912 33.912 87.901-59.168-73.319L147.5 295l-14.582-93.08-59.168 73.319 33.912-87.901-87.9 33.912 73.318-59.168L0 147.5l93.08-14.582L19.76 73.75l87.901 33.912-33.912-87.9 59.168 73.318L147.5 0z" fill="#AB3E22"/></svg><svg fill="none" viewBox="0 0 256 256" id="triangle-orange" xmlns="http://www.w3.org/2000/svg"><g filter="url(#sfilter0_f_1_475)"><path d="M25.62 230.862L80.537 25.915l150.031 150.031-204.946 54.916z" fill="#F0BC05"/></g><defs><filter id="sfilter0_f_1_475" x=".621" y=".915" width="254.947" height="254.946" filterUnits="userSpaceOnUse" color-interpolation-filters="sRGB"><feFlood flood-opacity="0" result="BackgroundImageFix"/><feBlend in="SourceGraphic" in2="BackgroundImageFix" result="shape"/><feGaussianBlur stdDeviation="12.5" result="effect1_foregroundBlur_1_475"/></filter></defs></svg></svg>