<?xml version="1.0" encoding="utf-8"?><svg viewBox="0 0 271 114" xmlns="http://www.w3.org/2000/svg" xmlns:xlink="http://www.w3.org/1999/xlink"><style>:root>svg{display:none}:root>svg:target{display:block}</style><svg fill="none" viewBox="0 0 88 16" id="arr" xmlns="http://www.w3.org/2000/svg"><path d="M87.707 8.707a1 1 0 000-1.414L81.343.929a1 1 0 10-1.414 1.414L85.586 8l-5.657 5.657a1 1 0 001.414 1.414l6.364-6.364zM0 9h87V7H0v2z" fill="#fff"/></svg><svg fill="none" viewBox="0 0 271 114" id="arrcircle" xmlns="http://www.w3.org/2000/svg"><path d="M156.4 57c0 31.48 25.52 57 57 57 31.481 0 57-25.52 57-57s-25.519-57-57-57c-31.48 0-57 25.52-57 57zm111.15 0c0 29.906-24.243 54.15-54.15 54.15-29.906 0-54.15-24.244-54.15-54.15S183.494 2.85 213.4 2.85c29.907 0 54.15 24.244 54.15 54.15z" fill="#A7FF4F"/><path d="M220.707 57.707a1 1 0 000-1.414l-6.364-6.364a1 1 0 10-1.414 1.414L218.586 57l-5.657 5.657a1 1 0 101.414 1.414l6.364-6.364zM0 58h220v-2H0v2z" fill="#fff"/></svg><svg fill="none" viewBox="0 0 115 114" id="arrow-slider" xmlns="http://www.w3.org/2000/svg"><path d="M.4 57c0 31.48 25.52 57 57 57s57-25.52 57-57-25.52-57-57-57S.4 25.52.4 57zm111.15 0c0 29.906-24.243 54.15-54.15 54.15-29.906 0-54.15-24.244-54.15-54.15S27.494 2.85 57.4 2.85c29.907 0 54.15 24.244 54.15 54.15z" fill="#A7FF4F"/></svg></svg>