<?xml version="1.0" encoding="utf-8"?><svg viewBox="0 0 271 114" xmlns="http://www.w3.org/2000/svg" xmlns:xlink="http://www.w3.org/1999/xlink"><style>:root>svg{display:none}:root>svg:target{display:block}</style><svg fill="none" viewBox="0 0 88 16" id="arr" xmlns="http://www.w3.org/2000/svg"><path d="M87.707 8.707a1 1 0 000-1.414L81.343.929a1 1 0 10-1.414 1.414L85.586 8l-5.657 5.657a1 1 0 001.414 1.414l6.364-6.364zM0 9h87V7H0v2z" fill="#fff"/></svg><svg fill="none" viewBox="0 0 271 114" id="arrcircle" xmlns="http://www.w3.org/2000/svg"><path d="M156.4 57c0 31.48 25.52 57 57 57 31.481 0 57-25.52 57-57s-25.519-57-57-57c-31.48 0-57 25.52-57 57zm111.15 0c0 29.906-24.243 54.15-54.15 54.15-29.906 0-54.15-24.244-54.15-54.15S183.494 2.85 213.4 2.85c29.907 0 54.15 24.244 54.15 54.15z" fill="#A7FF4F"/><path d="M220.707 57.707a1 1 0 000-1.414l-6.364-6.364a1 1 0 10-1.414 1.414L218.586 57l-5.657 5.657a1 1 0 101.414 1.414l6.364-6.364zM0 58h220v-2H0v2z" fill="#fff"/></svg><svg fill="none" viewBox="0 0 115 114" id="arrow-slider" xmlns="http://www.w3.org/2000/svg"><path d="M.4 57c0 31.48 25.52 57 57 57s57-25.52 57-57-25.52-57-57-57S.4 25.52.4 57zm111.15 0c0 29.906-24.243 54.15-54.15 54.15-29.906 0-54.15-24.244-54.15-54.15S27.494 2.85 57.4 2.85c29.907 0 54.15 24.244 54.15 54.15z" fill="#A7FF4F"/></svg><svg fill="none" viewBox="0 0 30 30" id="facebook" xmlns="http://www.w3.org/2000/svg"><path d="M22.5 2.5h-3.75a6.25 6.25 0 00-6.25 6.25v3.75H8.75v5h3.75v10h5v-10h3.75l1.25-5h-5V8.75a1.25 1.25 0 011.25-1.25h3.75v-5z" stroke="#fff" stroke-width="1.7" stroke-linecap="round" stroke-linejoin="round"/></svg><svg fill="none" viewBox="0 0 30 30" id="instagram" xmlns="http://www.w3.org/2000/svg"><path d="M21.25 2.5H8.75A6.25 6.25 0 002.5 8.75v12.5a6.25 6.25 0 006.25 6.25h12.5a6.25 6.25 0 006.25-6.25V8.75a6.25 6.25 0 00-6.25-6.25z" stroke="#fff" stroke-width="2" stroke-linecap="round" stroke-linejoin="round"/><path d="M20 14.213a5 5 0 11-9.891 1.467A5 5 0 0120 14.213zM21.875 8.125h.012" stroke="#fff" stroke-width="2" stroke-linecap="round" stroke-linejoin="round"/></svg><svg fill="none" viewBox="0 0 30 30" id="phone" xmlns="http://www.w3.org/2000/svg"><path d="M18.813 6.25a6.25 6.25 0 014.937 4.938M18.812 1.25a11.25 11.25 0 019.938 9.925M27.5 21.15v3.75a2.5 2.5 0 01-2.725 2.5 24.737 24.737 0 01-10.787-3.837 24.376 24.376 0 01-7.5-7.5A24.737 24.737 0 012.65 5.225 2.5 2.5 0 015.138 2.5h3.75a2.5 2.5 0 012.5 2.15c.158 1.2.451 2.378.874 3.512A2.5 2.5 0 0111.7 10.8l-1.587 1.587a20 20 0 007.5 7.5L19.2 18.3a2.5 2.5 0 012.637-.563c1.135.424 2.313.717 3.513.876a2.5 2.5 0 012.15 2.537z" stroke="#fff" stroke-width="1.7" stroke-linecap="round" stroke-linejoin="round"/></svg></svg>