<svg width="343" height="166" viewBox="0 0 343 166" fill="none" xmlns="http://www.w3.org/2000/svg">
<path d="M19.1176 11.3158C19.1176 9.50086 18.6453 8.20672 17.7006 7.4334C16.7715 6.66007 15.4629 6.27341 13.7749 6.27341H7.10813V16.5476H13.7749C15.4629 16.5476 16.7715 16.1294 17.7006 15.2929C18.6453 14.4565 19.1176 13.1308 19.1176 11.3158ZM26.2025 11.2685C26.2025 15.3876 25.1804 18.2994 23.1363 20.0039C21.0921 21.7084 18.173 22.5606 14.3789 22.5606H7.10813V35.1074H0V0.213059H14.9131C18.351 0.213059 21.0921 1.11264 23.1363 2.91181C25.1804 4.71097 26.2025 7.49653 26.2025 11.2685Z" fill="white"/>
<path d="M42.6162 22.5606C42.1981 22.8289 41.7723 23.0498 41.3386 23.2234C40.9205 23.3813 40.3398 23.5312 39.5965 23.6732L38.1098 23.9573C36.716 24.2098 35.7172 24.5176 35.1132 24.8806C34.0911 25.4961 33.5801 26.4509 33.5801 27.745C33.5801 28.8971 33.8898 29.7336 34.5093 30.2544C35.1442 30.7594 35.9108 31.0119 36.809 31.0119C38.2337 31.0119 39.5423 30.5858 40.7347 29.7336C41.9426 28.8814 42.5698 27.3268 42.6162 25.07V22.5606ZM38.5976 19.4121C39.821 19.2542 40.696 19.057 41.2225 18.8202C42.1672 18.4099 42.6395 17.7707 42.6395 16.9027C42.6395 15.8453 42.2756 15.1193 41.5477 14.7248C40.8353 14.3144 39.7823 14.1093 38.3885 14.1093C36.8244 14.1093 35.7172 14.5038 35.0668 15.2929C34.6022 15.8769 34.2925 16.666 34.1376 17.6602H27.7496C27.889 15.4034 28.5084 13.549 29.6079 12.097C31.3578 9.8244 34.3621 8.68808 38.6208 8.68808C41.3928 8.68808 43.8551 9.24835 46.0077 10.3689C48.1603 11.4894 49.2366 13.6042 49.2366 16.7133V28.5499C49.2366 29.3706 49.252 30.3649 49.283 31.5328C49.3295 32.4166 49.4611 33.0163 49.6779 33.3319C49.8947 33.6476 50.2199 33.908 50.6535 34.1131V35.1074H43.4525C43.2512 34.5866 43.1118 34.0974 43.0344 33.6397C42.9569 33.182 42.895 32.6612 42.8485 32.0772C41.9349 33.0873 40.8818 33.9474 39.6894 34.6576C38.2646 35.4941 36.6541 35.9123 34.8577 35.9123C32.5658 35.9123 30.6687 35.2495 29.1666 33.9238C27.6799 32.5823 26.9366 30.6884 26.9366 28.2422C26.9366 25.07 28.1367 22.7737 30.5371 21.3533C31.8534 20.5799 33.7892 20.0276 36.3444 19.6961L38.5976 19.4121Z" fill="white"/>
<path d="M63.6294 29.5679C65.178 29.5679 66.4865 28.976 67.5551 27.7924C68.6236 26.5929 69.1579 24.6912 69.1579 22.0871C69.1579 19.6409 68.6469 17.7786 67.6248 16.5002C66.6182 15.2219 65.2631 14.5827 63.5597 14.5827C61.2368 14.5827 59.6339 15.6954 58.7512 17.9206C58.2867 19.1043 58.0544 20.5642 58.0544 22.3002C58.0544 23.7995 58.3021 25.1331 58.7977 26.301C59.6959 28.4789 61.3064 29.5679 63.6294 29.5679ZM61.9801 8.68808C63.25 8.68808 64.3572 8.88536 65.3019 9.27991C66.9124 9.95854 68.2133 11.2053 69.2044 13.0203V9.30358H75.6388V33.7817C75.6388 37.1118 75.0891 39.6211 73.9896 41.3098C72.1003 44.2137 68.4765 45.6657 63.1183 45.6657C59.8817 45.6657 57.2413 45.0186 55.1972 43.7245C53.153 42.4303 52.0225 40.497 51.8057 37.9245H59.0068C59.1926 38.7136 59.4946 39.2818 59.9127 39.629C60.6251 40.2445 61.8252 40.5523 63.5132 40.5523C65.8981 40.5523 67.4931 39.7395 68.2984 38.1139C68.825 37.0723 69.0882 35.3205 69.0882 32.8585V31.2013C68.4533 32.3061 67.7719 33.1346 67.0441 33.687C65.7277 34.7129 64.0165 35.2258 61.9104 35.2258C58.6583 35.2258 56.0567 34.0658 54.1054 31.7458C52.1696 29.4101 51.2018 26.2536 51.2018 22.2765C51.2018 18.4415 52.1387 15.2219 54.0125 12.6178C55.8863 9.998 58.5422 8.68808 61.9801 8.68808Z" fill="white"/>
<path d="M86.2685 6.22606H79.5553V0H86.2685V6.22606ZM79.5553 9.30358H86.2685V35.1074H79.5553V9.30358Z" fill="white"/>
<path d="M104.355 8.68808C106.972 8.68808 109.109 9.39039 110.766 10.795C112.439 12.1838 113.275 14.4959 113.275 17.7313V35.1074H106.492V19.4121C106.492 18.0548 106.314 17.0132 105.958 16.2872C105.307 14.9615 104.068 14.2986 102.241 14.2986C99.9954 14.2986 98.4545 15.2692 97.6183 17.2104C97.1847 18.2363 96.9679 19.5462 96.9679 21.1402V35.1074H90.3708V9.35093H96.7588V13.115C97.6105 11.7893 98.4158 10.8345 99.1747 10.2505C100.537 9.20889 102.264 8.68808 104.355 8.68808Z" fill="white"/>
<path d="M130.989 22.5606C130.571 22.8289 130.145 23.0498 129.712 23.2234C129.294 23.3813 128.713 23.5312 127.97 23.6732L126.483 23.9573C125.089 24.2098 124.09 24.5176 123.486 24.8806C122.464 25.4961 121.953 26.4509 121.953 27.745C121.953 28.8971 122.263 29.7336 122.882 30.2544C123.517 30.7594 124.284 31.0119 125.182 31.0119C126.607 31.0119 127.915 30.5858 129.108 29.7336C130.316 28.8814 130.943 27.3268 130.989 25.07V22.5606ZM126.971 19.4121C128.194 19.2542 129.069 19.057 129.596 18.8202C130.54 18.4099 131.013 17.7707 131.013 16.9027C131.013 15.8453 130.649 15.1193 129.921 14.7248C129.208 14.3144 128.155 14.1093 126.762 14.1093C125.198 14.1093 124.09 14.5038 123.44 15.2929C122.975 15.8769 122.666 16.666 122.511 17.6602H116.123C116.262 15.4034 116.881 13.549 117.981 12.097C119.731 9.8244 122.735 8.68808 126.994 8.68808C129.766 8.68808 132.228 9.24835 134.381 10.3689C136.533 11.4894 137.61 13.6042 137.61 16.7133V28.5499C137.61 29.3706 137.625 30.3649 137.656 31.5328C137.703 32.4166 137.834 33.0163 138.051 33.3319C138.268 33.6476 138.593 33.908 139.027 34.1131L138.376 35.1074H131.826C131.624 34.5866 131.485 34.0974 131.407 33.6397C131.33 33.182 131.268 32.6612 131.222 32.0772C130.308 33.0873 129.255 33.9474 128.062 34.6576C126.638 35.4941 125.027 35.9123 123.231 35.9123C120.939 35.9123 119.042 35.2495 117.54 33.9238C116.053 32.5823 115.31 30.6884 115.31 28.2422C115.31 25.07 116.51 22.7737 118.91 21.3533C120.226 20.5799 122.162 20.0276 124.717 19.6961L126.971 19.4121Z" fill="white"/>
<path d="M93.2518 47.3011C91.7082 47.3011 90.5076 47.7881 89.65 48.7622C88.8081 49.7363 88.2779 51.056 88.0597 52.7214H98.4205C98.3114 50.946 97.7735 49.6027 96.8068 48.6915C95.8557 47.7645 94.6707 47.3011 93.2518 47.3011ZM93.2518 41.7629C95.3723 41.7629 97.2823 42.1635 98.9818 42.9648C100.681 43.7661 102.085 45.0308 103.192 46.759C104.19 48.283 104.837 50.0505 105.133 52.0615C105.304 53.2398 105.375 54.9366 105.343 57.1519H87.8959C87.9895 59.7285 88.7925 61.5353 90.3049 62.5722C91.2248 63.2164 92.3319 63.5385 93.626 63.5385C94.9981 63.5385 96.1129 63.1457 96.9705 62.3601C97.4382 61.9359 97.8514 61.3468 98.21 60.5926H105.016C104.844 62.1166 104.057 63.6641 102.654 65.2353C100.471 67.7333 97.4149 68.9823 93.4857 68.9823C90.2425 68.9823 87.3814 67.9297 84.9023 65.8244C82.4232 63.7191 81.1836 60.2941 81.1836 55.5494C81.1836 51.1031 82.2984 47.6938 84.5281 45.3215C86.7733 42.9491 89.6812 41.7629 93.2518 41.7629Z" fill="white"/>
<path d="M112.654 59.9328C112.795 61.1268 113.099 61.9752 113.567 62.478C114.393 63.3735 115.921 63.8213 118.151 63.8213C119.46 63.8213 120.497 63.6249 121.261 63.2321C122.041 62.8393 122.431 62.2501 122.431 61.4646C122.431 60.7105 122.119 60.137 121.495 59.7442C120.871 59.3515 118.556 58.6759 114.549 57.7175C111.664 56.9948 109.63 56.0914 108.445 55.0073C107.26 53.939 106.667 52.3993 106.667 50.3883C106.667 48.0159 107.587 45.9813 109.427 44.2845C111.282 42.572 113.886 41.7158 117.239 41.7158C120.419 41.7158 123.008 42.3599 125.003 43.6482C127.015 44.9208 128.168 47.1282 128.465 50.2705H121.799C121.706 49.4063 121.464 48.7229 121.074 48.2202C120.341 47.3089 119.094 46.8533 117.332 46.8533C115.882 46.8533 114.845 47.0811 114.221 47.5367C113.613 47.9923 113.309 48.5265 113.309 49.1393C113.309 49.9091 113.637 50.4668 114.292 50.8125C114.946 51.1738 117.262 51.7944 121.238 52.6742C123.888 53.3027 125.876 54.2532 127.202 55.5258C128.512 56.8141 129.166 58.4245 129.166 60.357C129.166 62.9022 128.223 64.9839 126.336 66.6021C124.465 68.2046 121.565 69.0059 117.636 69.0059C113.629 69.0059 110.666 68.1575 108.749 66.4607C106.846 64.7482 105.895 62.5722 105.895 59.9328H112.654Z" fill="white"/>
<path d="M129.11 47.466V42.682H132.665V35.5177H139.261V42.682H143.4V47.466H139.261V61.0404C139.261 62.093 139.393 62.7529 139.658 63.02C139.923 63.2714 140.734 63.3971 142.091 63.3971C142.293 63.3971 142.504 63.3971 142.722 63.3971C142.956 63.3813 143.182 63.3656 143.4 63.3499V68.3696L140.243 68.4874C137.093 68.5974 134.942 68.0475 133.788 66.8378C133.039 66.0679 132.665 64.8818 132.665 63.2792V47.466H129.11Z" fill="white"/>
<path d="M155.342 47.3011C153.799 47.3011 152.598 47.7881 151.74 48.7622C150.898 49.7363 150.368 51.056 150.15 52.7214H160.511C160.402 50.946 159.864 49.6027 158.897 48.6915C157.946 47.7645 156.761 47.3011 155.342 47.3011ZM155.342 41.7629C157.463 41.7629 159.373 42.1635 161.072 42.9648C162.772 43.7661 164.175 45.0308 165.282 46.759C166.28 48.283 166.927 50.0505 167.223 52.0615C167.395 53.2398 167.465 54.9366 167.434 57.1519H149.986C150.08 59.7285 150.883 61.5353 152.395 62.5722C153.315 63.2164 154.422 63.5385 155.716 63.5385C157.089 63.5385 158.203 63.1457 159.061 62.3601C159.529 61.9359 159.942 61.3468 160.3 60.5926H167.106C166.935 62.1166 166.147 63.6641 164.744 65.2353C162.561 67.7333 159.505 68.9823 155.576 68.9823C152.333 68.9823 149.472 67.9297 146.993 65.8244C144.514 63.7191 143.274 60.2941 143.274 55.5494C143.274 51.1031 144.389 47.6938 146.618 45.3215C148.864 42.9491 151.772 41.7629 155.342 41.7629Z" fill="white"/>
<path d="M0 88.7594V84.1008H3.55613V77.1243H10.1537V84.1008H14.2947V88.7594H10.1537V101.978C10.1537 103.003 10.2863 103.646 10.5514 103.906C10.8166 104.151 11.6276 104.273 12.9845 104.273C13.1873 104.273 13.3979 104.273 13.6162 104.273C13.8502 104.258 14.0763 104.242 14.2947 104.227V109.115L11.1363 109.23C7.98569 109.337 5.8333 108.802 4.67912 107.623C3.93046 106.874 3.55613 105.719 3.55613 104.158V88.7594H0Z" fill="white"/>
<path d="M26.2405 88.5988C24.6964 88.5988 23.4954 89.073 22.6376 90.0216C21.7953 90.9702 21.265 92.2553 21.0467 93.877H31.4109C31.3017 92.1482 30.7636 90.8401 29.7966 89.9528C28.8452 89.0501 27.6598 88.5988 26.2405 88.5988ZM26.2405 83.2057C28.3617 83.2057 30.2723 83.5959 31.9724 84.3761C33.6725 85.1564 35.0762 86.388 36.1836 88.0709C37.1818 89.555 37.8291 91.2761 38.1254 93.2345C38.297 94.3819 38.3672 96.0342 38.336 98.1914H20.8829C20.9765 100.701 21.7797 102.46 23.2926 103.47C24.2129 104.097 25.3203 104.411 26.6148 104.411C27.9874 104.411 29.1025 104.028 29.9604 103.263C30.4283 102.85 30.8416 102.276 31.2004 101.542H38.0085C37.8369 103.026 37.0492 104.533 35.6455 106.063C33.4619 108.496 30.4049 109.712 26.4744 109.712C23.2303 109.712 20.3682 108.687 17.8883 106.637C15.4083 104.587 14.1684 101.251 14.1684 96.6309C14.1684 92.3012 15.2836 88.9812 17.5139 86.671C19.7599 84.3608 22.6688 83.2057 26.2405 83.2057Z" fill="white"/>
<path d="M68.9515 83.3205C70.0745 83.3205 71.1819 83.5347 72.2736 83.9631C73.3654 84.3914 74.3559 85.1411 75.2449 86.2121C75.9623 87.0841 76.4459 88.1551 76.6954 89.4249C76.8514 90.2664 76.9294 91.498 76.9294 93.1197L76.8826 108.886H70.0511V92.9591C70.0511 92.0105 69.8951 91.2302 69.5831 90.6183C68.9905 89.4555 67.8987 88.8741 66.3078 88.8741C64.4673 88.8741 63.1962 89.6238 62.4943 91.1231C62.1356 91.9187 61.9562 92.8749 61.9562 93.9918V108.886H55.2417V93.9918C55.2417 92.5077 55.0857 91.4291 54.7737 90.756C54.2123 89.5473 53.1127 88.943 51.475 88.943C49.5721 88.943 48.2932 89.5473 47.6381 90.756C47.2794 91.4444 47.1 92.4695 47.1 93.8311V108.886H40.3387V83.9172H46.8192V87.5661C47.6459 86.2656 48.4257 85.34 49.1588 84.7892C50.4534 83.8101 52.13 83.3205 54.1889 83.3205C56.1385 83.3205 57.7138 83.7412 58.9148 84.5827C59.8818 85.363 60.6148 86.3651 61.1139 87.589C61.9874 86.1203 63.0714 85.0417 64.3659 84.3532C65.7385 83.6647 67.267 83.3205 68.9515 83.3205Z" fill="white"/>
<path d="M98.2568 96.3785C98.2568 94.4508 97.8045 92.7449 96.8998 91.2608C96.0108 89.7768 94.5603 89.0348 92.5483 89.0348C90.1307 89.0348 88.4696 90.1593 87.565 92.4083C87.0971 93.6016 86.8631 95.1163 86.8631 96.9522C86.8631 99.8591 87.6508 101.902 89.2261 103.08C90.1619 103.768 91.2693 104.112 92.5483 104.112C94.4043 104.112 95.8158 103.409 96.7829 102.001C97.7655 100.593 98.2568 98.7193 98.2568 96.3785ZM94.4667 83.3205C97.4457 83.3205 99.9647 84.3991 102.023 86.5563C104.098 88.7135 105.135 91.8805 105.135 96.0572C105.135 100.463 104.121 103.822 102.094 106.132C100.082 108.442 97.4847 109.597 94.3029 109.597C92.2753 109.597 90.5908 109.1 89.2495 108.105C88.5164 107.555 87.799 106.751 87.0971 105.696V118.731H80.3206V83.8713H86.8865V87.5661C87.604 86.4798 88.3682 85.623 89.1793 84.9958C90.661 83.8789 92.4235 83.3205 94.4667 83.3205Z" fill="white"/>
<path d="M119.023 104.273C120.972 104.273 122.47 103.592 123.515 102.23C124.56 100.869 125.082 98.9335 125.082 96.4244C125.082 93.9153 124.56 91.9876 123.515 90.6412C122.47 89.2796 120.972 88.5988 119.023 88.5988C117.073 88.5988 115.568 89.2796 114.507 90.6412C113.462 91.9876 112.94 93.9153 112.94 96.4244C112.94 98.9335 113.462 100.869 114.507 102.23C115.568 103.592 117.073 104.273 119.023 104.273ZM132.077 96.4244C132.077 100.096 131.001 103.24 128.849 105.856C126.696 108.457 123.429 109.758 119.046 109.758C114.663 109.758 111.396 108.457 109.243 105.856C107.091 103.24 106.015 100.096 106.015 96.4244C106.015 92.8137 107.091 89.685 109.243 87.0382C111.396 84.3914 114.663 83.0681 119.046 83.0681C123.429 83.0681 126.696 84.3914 128.849 87.0382C131.001 89.685 132.077 92.8137 132.077 96.4244Z" fill="white"/>
<path d="M148.328 83.2746C148.453 83.2746 148.554 83.2822 148.632 83.2975C148.726 83.2975 148.921 83.3052 149.217 83.3205V90.0216C148.796 89.9757 148.422 89.9451 148.094 89.9298C147.767 89.9145 147.501 89.9069 147.299 89.9069C144.616 89.9069 142.814 90.7636 141.894 92.4771C141.38 93.441 141.122 94.925 141.122 96.9292V108.886H134.408V83.8713H140.771V88.2316C141.801 86.564 142.697 85.4241 143.462 84.8122C144.709 83.7871 146.332 83.2746 148.328 83.2746Z" fill="white"/>
<path d="M164.813 96.7227C164.391 96.9828 163.963 97.197 163.526 97.3653C163.105 97.5183 162.52 97.6636 161.771 97.8013L160.274 98.0767C158.87 98.3215 157.864 98.6198 157.256 98.9717C156.226 99.5684 155.712 100.494 155.712 101.749C155.712 102.865 156.024 103.676 156.647 104.181C157.287 104.671 158.059 104.915 158.964 104.915C160.399 104.915 161.717 104.502 162.917 103.676C164.134 102.85 164.766 101.343 164.813 99.1553V96.7227ZM160.765 93.6705C161.997 93.5175 162.879 93.3263 163.409 93.0968C164.36 92.699 164.836 92.0794 164.836 91.2379C164.836 90.2128 164.469 89.5091 163.736 89.1266C163.019 88.7288 161.958 88.5299 160.555 88.5299C158.979 88.5299 157.864 88.9124 157.209 89.6774C156.741 90.2434 156.429 91.0084 156.273 91.9723H149.839C149.98 89.7845 150.604 87.9868 151.711 86.5792C153.473 84.3761 156.499 83.2746 160.788 83.2746C163.58 83.2746 166.06 83.8177 168.228 84.904C170.396 85.9902 171.48 88.0403 171.48 91.0543V102.529C171.48 103.324 171.496 104.288 171.527 105.42C171.574 106.277 171.706 106.859 171.925 107.164C172.143 107.47 172.471 107.723 172.907 107.922V108.886H165.655C165.452 108.381 165.312 107.907 165.234 107.463C165.156 107.019 165.093 106.514 165.046 105.948C164.126 106.927 163.066 107.761 161.865 108.45C160.43 109.26 158.808 109.666 156.998 109.666C154.69 109.666 152.779 109.023 151.266 107.738C149.769 106.438 149.021 104.602 149.021 102.23C149.021 99.1553 150.229 96.9292 152.647 95.5523C153.973 94.8026 155.922 94.2672 158.496 93.9459L160.765 93.6705Z" fill="white"/>
<path d="M188.877 83.2746C189.002 83.2746 189.103 83.2822 189.181 83.2975C189.275 83.2975 189.47 83.3052 189.766 83.3205V90.0216C189.345 89.9757 188.971 89.9451 188.643 89.9298C188.316 89.9145 188.051 89.9069 187.848 89.9069C185.165 89.9069 183.364 90.7636 182.443 92.4771C181.929 93.441 181.671 94.925 181.671 96.9292V108.886H174.957V83.8713H181.32V88.2316C182.35 86.564 183.247 85.4241 184.011 84.8122C185.259 83.7871 186.881 83.2746 188.877 83.2746Z" fill="white"/>
<path d="M87.0458 126.749H80.2998V120.583H87.0458V126.749ZM80.2998 129.797H87.0458V155.353H80.2998V129.797Z" fill="white"/>
<path d="M105.22 129.188C107.85 129.188 109.998 129.883 111.663 131.274C113.344 132.65 114.184 134.94 114.184 138.144V155.353H107.368V139.808C107.368 138.464 107.189 137.433 106.831 136.714C106.178 135.401 104.933 134.744 103.096 134.744C100.84 134.744 99.2914 135.705 98.4511 137.628C98.0154 138.644 97.7975 139.941 97.7975 141.52V155.353H91.1682V129.844H97.5874V133.572C98.4433 132.259 99.2525 131.313 100.015 130.735C101.385 129.703 103.12 129.188 105.22 129.188Z" fill="white"/>
<path d="M127.34 129.188C128.881 129.188 130.25 129.531 131.448 130.219C132.647 130.891 133.619 131.829 134.366 133.033V120.841H141.112V155.353H134.646V151.813C133.697 153.329 132.615 154.431 131.402 155.119C130.188 155.806 128.678 156.15 126.873 156.15C123.901 156.15 121.395 154.947 119.357 152.54C117.334 150.117 116.322 147.014 116.322 143.232C116.322 138.871 117.318 135.44 119.31 132.939C121.318 130.438 123.994 129.188 127.34 129.188ZM128.787 150.523C130.67 150.523 132.102 149.82 133.082 148.413C134.063 147.006 134.553 145.185 134.553 142.95C134.553 139.824 133.767 137.589 132.195 136.245C131.23 135.432 130.11 135.026 128.834 135.026C126.889 135.026 125.457 135.768 124.539 137.253C123.636 138.722 123.185 140.551 123.185 142.739C123.185 145.099 123.644 146.991 124.562 148.413C125.496 149.82 126.904 150.523 128.787 150.523Z" fill="white"/>
<path d="M151.63 126.749H144.884V120.583H151.63V126.749ZM144.884 129.797H151.63V155.353H144.884V129.797Z" fill="white"/>
<path d="M160.888 147.194C161.028 148.382 161.332 149.226 161.799 149.726C162.623 150.617 164.148 151.062 166.374 151.062C167.681 151.062 168.716 150.867 169.478 150.476C170.256 150.086 170.645 149.499 170.645 148.718C170.645 147.968 170.334 147.397 169.712 147.006C169.089 146.616 166.778 145.943 162.779 144.99C159.9 144.271 157.869 143.372 156.687 142.294C155.504 141.231 154.912 139.699 154.912 137.698C154.912 135.338 155.831 133.314 157.667 131.626C159.519 129.922 162.118 129.07 165.463 129.07C168.638 129.07 171.221 129.711 173.213 130.993C175.221 132.259 176.372 134.455 176.668 137.581H170.015C169.922 136.721 169.681 136.042 169.292 135.541C168.56 134.635 167.315 134.182 165.557 134.182C164.109 134.182 163.075 134.408 162.452 134.861C161.845 135.315 161.542 135.846 161.542 136.456C161.542 137.222 161.869 137.777 162.522 138.12C163.176 138.48 165.487 139.097 169.455 139.973C172.1 140.598 174.085 141.543 175.407 142.81C176.715 144.091 177.368 145.693 177.368 147.616C177.368 150.148 176.427 152.219 174.544 153.829C172.676 155.423 169.782 156.221 165.86 156.221C161.861 156.221 158.904 155.376 156.99 153.688C155.091 151.985 154.142 149.82 154.142 147.194H160.888Z" fill="white"/>
<path d="M197.457 142.575C197.457 140.606 197.006 138.863 196.103 137.347C195.216 135.831 193.769 135.072 191.761 135.072C189.349 135.072 187.692 136.221 186.789 138.519C186.322 139.738 186.089 141.286 186.089 143.161C186.089 146.131 186.875 148.218 188.447 149.421C189.38 150.125 190.485 150.476 191.761 150.476C193.613 150.476 195.021 149.757 195.986 148.319C196.967 146.881 197.457 144.967 197.457 142.575ZM193.675 129.234C196.648 129.234 199.161 130.336 201.215 132.54C203.285 134.744 204.32 137.98 204.32 142.247C204.32 146.748 203.308 150.179 201.285 152.54C199.278 154.9 196.687 156.08 193.512 156.08C191.489 156.08 189.808 155.572 188.47 154.556C187.739 153.993 187.023 153.173 186.322 152.094V165.411H179.74V129.797H186.112V133.572C186.828 132.462 187.591 131.587 188.4 130.946C189.878 129.805 191.637 129.234 193.675 129.234Z" fill="white"/>
<path d="M218.176 150.64C220.121 150.64 221.615 149.945 222.658 148.554C223.7 147.163 224.222 145.185 224.222 142.622C224.222 140.059 223.7 138.089 222.658 136.714C221.615 135.323 220.121 134.627 218.176 134.627C216.231 134.627 214.729 135.323 213.671 136.714C212.628 138.089 212.107 140.059 212.107 142.622C212.107 145.185 212.628 147.163 213.671 148.554C214.729 149.945 216.231 150.64 218.176 150.64ZM231.201 142.622C231.201 146.373 230.127 149.585 227.98 152.258C225.832 154.915 222.572 156.244 218.199 156.244C213.826 156.244 210.566 154.915 208.419 152.258C206.271 149.585 205.197 146.373 205.197 142.622C205.197 138.933 206.271 135.737 208.419 133.033C210.566 130.329 213.826 128.977 218.199 128.977C222.572 128.977 225.832 130.329 227.98 133.033C230.127 135.737 231.201 138.933 231.201 142.622Z" fill="white"/>
<path d="M247.695 129.188C250.325 129.188 252.473 129.883 254.138 131.274C255.818 132.65 256.659 134.94 256.659 138.144V155.353H249.843V139.808C249.843 138.464 249.664 137.433 249.306 136.714C248.652 135.401 247.407 134.744 245.571 134.744C243.314 134.744 241.766 135.705 240.926 137.628C240.49 138.644 240.272 139.941 240.272 141.52V155.353H233.643V129.844H240.062V133.572C240.918 132.259 241.727 131.313 242.49 130.735C243.859 129.703 245.594 129.188 247.695 129.188Z" fill="white"/>
<path d="M267.27 126.749H260.524V120.583H267.27V126.749ZM260.524 129.797H267.27V155.353H260.524V129.797Z" fill="white"/>
<path d="M285.095 129.234C288.441 129.234 291.055 130.446 292.938 132.869C294.836 135.291 295.786 138.417 295.786 142.247C295.786 146.217 294.852 149.507 292.985 152.118C291.117 154.728 288.511 156.033 285.165 156.033C283.064 156.033 281.376 155.611 280.099 154.767C279.337 154.267 278.512 153.391 277.625 152.141V155.353H271.113V120.841H277.742V133.126C278.582 131.939 279.508 131.032 280.52 130.407C281.718 129.625 283.243 129.234 285.095 129.234ZM283.391 150.523C285.103 150.523 286.433 149.828 287.382 148.437C288.332 147.045 288.806 145.217 288.806 142.95C288.806 141.137 288.573 139.637 288.106 138.449C287.219 136.198 285.585 135.072 283.204 135.072C280.792 135.072 279.135 136.174 278.232 138.378C277.765 139.551 277.532 141.067 277.532 142.927C277.532 145.115 278.014 146.928 278.979 148.366C279.944 149.804 281.414 150.523 283.391 150.523Z" fill="white"/>
<path d="M305.02 126.749H298.274V120.583H305.02V126.749ZM298.274 129.797H305.02V155.353H298.274V129.797Z" fill="white"/>
<path d="M315.888 155.353H309.236V120.794H315.888V155.353Z" fill="white"/>
<path d="M334.04 142.927C333.62 143.192 333.192 143.411 332.756 143.583C332.336 143.74 331.752 143.888 331.005 144.029L329.511 144.31C328.111 144.56 327.107 144.865 326.5 145.224C325.473 145.834 324.959 146.78 324.959 148.061C324.959 149.202 325.271 150.031 325.893 150.547C326.531 151.047 327.302 151.297 328.204 151.297C329.636 151.297 330.951 150.875 332.149 150.031C333.363 149.187 333.993 147.647 334.04 145.412V142.927ZM330.001 139.808C331.231 139.652 332.11 139.457 332.639 139.222C333.589 138.816 334.063 138.183 334.063 137.323C334.063 136.276 333.697 135.557 332.966 135.166C332.25 134.76 331.192 134.557 329.791 134.557C328.22 134.557 327.107 134.947 326.453 135.729C325.987 136.307 325.675 137.089 325.52 138.074H319.1C319.241 135.838 319.863 134.002 320.968 132.564C322.726 130.313 325.745 129.188 330.025 129.188C332.81 129.188 335.285 129.742 337.448 130.852C339.611 131.962 340.692 134.056 340.692 137.136V148.859C340.692 149.671 340.708 150.656 340.739 151.813C340.786 152.688 340.918 153.282 341.136 153.595C341.354 153.907 341.681 154.165 342.116 154.368V155.353H334.88C334.678 154.837 334.538 154.353 334.46 153.899C334.382 153.446 334.32 152.93 334.273 152.352C333.355 153.352 332.297 154.204 331.099 154.908C329.667 155.736 328.048 156.15 326.243 156.15C323.94 156.15 322.034 155.494 320.524 154.181C319.03 152.852 318.283 150.976 318.283 148.554C318.283 145.412 319.49 143.138 321.902 141.731C323.224 140.965 325.17 140.418 327.737 140.09L330.001 139.808ZM338.685 118.731C338.483 121.122 337.689 122.888 336.304 124.03C334.919 125.155 333.028 125.718 330.632 125.718C328.235 125.718 326.344 125.155 324.959 124.03C323.574 122.888 322.781 121.122 322.579 118.731H325.73C325.948 120.169 326.695 121.146 327.971 121.661C328.687 121.958 329.574 122.107 330.632 122.107C331.69 122.107 332.577 121.958 333.293 121.661C334.569 121.146 335.316 120.169 335.534 118.731H338.685Z" fill="white"/>
</svg>
