<svg width="1087" height="258" viewBox="0 0 1087 258" fill="none" xmlns="http://www.w3.org/2000/svg">
<path d="M40.1855 23.9277C40.1855 20.1842 39.1927 17.515 37.207 15.9199C35.2539 14.3249 32.5033 13.5273 28.9551 13.5273H14.9414V34.7188H28.9551C32.5033 34.7188 35.2539 33.8561 37.207 32.1309C39.1927 30.4056 40.1855 27.6712 40.1855 23.9277ZM55.0781 23.8301C55.0781 32.3262 52.9297 38.332 48.6328 41.8477C44.3359 45.3633 38.1999 47.1211 30.2246 47.1211H14.9414V73H0V1.02734H31.3477C38.5742 1.02734 44.3359 2.88281 48.6328 6.59375C52.9297 10.3047 55.0781 16.0501 55.0781 23.8301Z" fill="white"/>
<path d="M89.5801 47.1211C88.7012 47.6745 87.806 48.1302 86.8945 48.4883C86.0156 48.8138 84.7949 49.123 83.2324 49.416L80.1074 50.002C77.1777 50.5228 75.0781 51.1576 73.8086 51.9062C71.6602 53.1758 70.5859 55.1452 70.5859 57.8145C70.5859 60.1908 71.237 61.916 72.5391 62.9902C73.8737 64.0319 75.485 64.5527 77.373 64.5527C80.3678 64.5527 83.1185 63.6738 85.625 61.916C88.1641 60.1582 89.4824 56.9518 89.5801 52.2969V47.1211ZM81.1328 40.627C83.7044 40.3014 85.5436 39.8945 86.6504 39.4062C88.6361 38.5599 89.6289 37.2415 89.6289 35.4512C89.6289 33.2702 88.8639 31.7728 87.334 30.959C85.8366 30.1126 83.623 29.6895 80.6934 29.6895C77.4056 29.6895 75.0781 30.5033 73.7109 32.1309C72.7344 33.3353 72.0833 34.9629 71.7578 37.0137H58.3301C58.623 32.3587 59.9251 28.5339 62.2363 25.5391C65.9147 20.8516 72.2298 18.5078 81.1816 18.5078C87.0085 18.5078 92.1842 19.6634 96.709 21.9746C101.234 24.2858 103.496 28.6478 103.496 35.0605V59.4746C103.496 61.1673 103.529 63.2181 103.594 65.627C103.691 67.4499 103.968 68.6869 104.424 69.3379C104.88 69.9889 105.563 70.526 106.475 70.9492V73H91.3379C90.9147 71.9258 90.6217 70.9167 90.459 69.9727C90.2962 69.0286 90.166 67.9544 90.0684 66.75C88.1478 68.8333 85.9342 70.6074 83.4277 72.0723C80.4329 73.7975 77.0475 74.6602 73.2715 74.6602C68.4538 74.6602 64.4661 73.293 61.3086 70.5586C58.1836 67.7917 56.6211 63.8854 56.6211 58.8398C56.6211 52.2969 59.1439 47.5605 64.1895 44.6309C66.9564 43.0358 71.0254 41.8965 76.3965 41.2129L81.1328 40.627Z" fill="white"/>
<path d="M133.75 61.5742C137.005 61.5742 139.756 60.3535 142.002 57.9121C144.248 55.4382 145.371 51.5156 145.371 46.1445C145.371 41.099 144.297 37.2578 142.148 34.6211C140.033 31.9844 137.184 30.666 133.604 30.666C128.721 30.666 125.352 32.9609 123.496 37.5508C122.52 39.9922 122.031 43.0033 122.031 46.584C122.031 49.6764 122.552 52.4271 123.594 54.8359C125.482 59.3281 128.867 61.5742 133.75 61.5742ZM130.283 18.5078C132.952 18.5078 135.28 18.9147 137.266 19.7285C140.651 21.1283 143.385 23.6999 145.469 27.4434V19.7773H158.994V70.2656C158.994 77.1341 157.839 82.3099 155.527 85.793C151.556 91.7826 143.939 94.7773 132.676 94.7773C125.872 94.7773 120.322 93.4427 116.025 90.7734C111.729 88.1042 109.352 84.1165 108.896 78.8105H124.033C124.424 80.4381 125.059 81.61 125.938 82.3262C127.435 83.5957 129.958 84.2305 133.506 84.2305C138.519 84.2305 141.872 82.554 143.564 79.2012C144.671 77.0527 145.225 73.4395 145.225 68.3613V64.9434C143.89 67.222 142.458 68.931 140.928 70.0703C138.161 72.1862 134.564 73.2441 130.137 73.2441C123.301 73.2441 117.832 70.8516 113.73 66.0664C109.661 61.2487 107.627 54.7383 107.627 46.5352C107.627 38.625 109.596 31.9844 113.535 26.6133C117.474 21.2096 123.057 18.5078 130.283 18.5078Z" fill="white"/>
<path d="M181.338 13.4297H167.227V0.587891H181.338V13.4297ZM167.227 19.7773H181.338V73H167.227V19.7773Z" fill="white"/>
<path d="M219.355 18.5078C224.857 18.5078 229.349 19.9564 232.832 22.8535C236.348 25.7181 238.105 30.487 238.105 37.1602V73H223.848V40.627C223.848 37.8275 223.473 35.679 222.725 34.1816C221.357 31.4473 218.753 30.0801 214.912 30.0801C210.192 30.0801 206.953 32.082 205.195 36.0859C204.284 38.2018 203.828 40.9036 203.828 44.1914V73H189.961V19.875H203.389V27.6387C205.179 24.9043 206.872 22.9349 208.467 21.7305C211.331 19.582 214.961 18.5078 219.355 18.5078Z" fill="white"/>
<path d="M275.342 47.1211C274.463 47.6745 273.568 48.1302 272.656 48.4883C271.777 48.8138 270.557 49.123 268.994 49.416L265.869 50.002C262.939 50.5228 260.84 51.1576 259.57 51.9062C257.422 53.1758 256.348 55.1452 256.348 57.8145C256.348 60.1908 256.999 61.916 258.301 62.9902C259.635 64.0319 261.247 64.5527 263.135 64.5527C266.13 64.5527 268.88 63.6738 271.387 61.916C273.926 60.1582 275.244 56.9518 275.342 52.2969V47.1211ZM266.895 40.627C269.466 40.3014 271.305 39.8945 272.412 39.4062C274.398 38.5599 275.391 37.2415 275.391 35.4512C275.391 33.2702 274.626 31.7728 273.096 30.959C271.598 30.1126 269.385 29.6895 266.455 29.6895C263.167 29.6895 260.84 30.5033 259.473 32.1309C258.496 33.3353 257.845 34.9629 257.52 37.0137H244.092C244.385 32.3587 245.687 28.5339 247.998 25.5391C251.676 20.8516 257.992 18.5078 266.943 18.5078C272.77 18.5078 277.946 19.6634 282.471 21.9746C286.995 24.2858 289.258 28.6478 289.258 35.0605V59.4746C289.258 61.1673 289.29 63.2181 289.355 65.627C289.453 67.4499 289.73 68.6869 290.186 69.3379C290.641 69.9889 291.325 70.526 292.236 70.9492L290.869 73H277.1C276.676 71.9258 276.383 70.9167 276.221 69.9727C276.058 69.0286 275.928 67.9544 275.83 66.75C273.91 68.8333 271.696 70.6074 269.189 72.0723C266.195 73.7975 262.809 74.6602 259.033 74.6602C254.215 74.6602 250.228 73.293 247.07 70.5586C243.945 67.7917 242.383 63.8854 242.383 58.8398C242.383 52.2969 244.906 47.5605 249.951 44.6309C252.718 43.0358 256.787 41.8965 262.158 41.2129L266.895 40.627Z" fill="white"/>
<path d="M194.831 97.3359C191.608 97.3359 189.102 98.3451 187.312 100.363C185.554 102.382 184.447 105.116 183.991 108.566H205.622C205.394 104.888 204.271 102.105 202.253 100.217C200.267 98.2962 197.793 97.3359 194.831 97.3359ZM194.831 85.8613C199.258 85.8613 203.246 86.6914 206.794 88.3516C210.342 90.0117 213.272 92.6322 215.583 96.2129C217.666 99.3704 219.017 103.033 219.636 107.199C219.994 109.641 220.14 113.156 220.075 117.746H183.649C183.845 123.085 185.521 126.828 188.679 128.977C190.599 130.311 192.91 130.979 195.612 130.979C198.477 130.979 200.804 130.165 202.595 128.537C203.571 127.658 204.434 126.438 205.183 124.875H219.392C219.034 128.033 217.39 131.239 214.46 134.494C209.903 139.67 203.522 142.258 195.319 142.258C188.549 142.258 182.575 140.077 177.399 135.715C172.224 131.353 169.636 124.257 169.636 114.426C169.636 105.214 171.963 98.1497 176.618 93.2344C181.306 88.319 187.377 85.8613 194.831 85.8613Z" fill="white"/>
<path d="M235.339 123.508C235.632 125.982 236.267 127.74 237.243 128.781C238.968 130.637 242.159 131.564 246.813 131.564C249.548 131.564 251.713 131.158 253.308 130.344C254.935 129.53 255.749 128.309 255.749 126.682C255.749 125.119 255.098 123.931 253.796 123.117C252.494 122.303 247.66 120.904 239.294 118.918C233.272 117.421 229.024 115.549 226.55 113.303C224.076 111.089 222.839 107.899 222.839 103.732C222.839 98.8171 224.759 94.6016 228.601 91.0859C232.474 87.5378 237.91 85.7637 244.909 85.7637C251.55 85.7637 256.953 87.0983 261.12 89.7676C265.319 92.4043 267.728 96.9779 268.347 103.488H254.431C254.235 101.698 253.731 100.282 252.917 99.2402C251.387 97.3522 248.783 96.4082 245.104 96.4082C242.077 96.4082 239.912 96.8802 238.61 97.8242C237.341 98.7682 236.706 99.875 236.706 101.145C236.706 102.74 237.39 103.895 238.757 104.611C240.124 105.36 244.958 106.646 253.259 108.469C258.793 109.771 262.943 111.74 265.71 114.377C268.444 117.046 269.812 120.383 269.812 124.387C269.812 129.66 267.842 133.973 263.903 137.326C259.997 140.646 253.942 142.307 245.739 142.307C237.373 142.307 231.188 140.549 227.185 137.033C223.213 133.485 221.228 128.977 221.228 123.508H235.339Z" fill="white"/>
<path d="M269.694 97.6777V87.7656H277.116V72.9219H290.886V87.7656H299.528V97.6777H290.886V125.803C290.886 127.984 291.162 129.351 291.716 129.904C292.269 130.425 293.962 130.686 296.794 130.686C297.217 130.686 297.657 130.686 298.112 130.686C298.601 130.653 299.073 130.62 299.528 130.588V140.988L292.937 141.232C286.361 141.46 281.869 140.321 279.46 137.814C277.897 136.219 277.116 133.762 277.116 130.441V97.6777H269.694Z" fill="white"/>
<path d="M324.46 97.3359C321.237 97.3359 318.731 98.3451 316.94 100.363C315.183 102.382 314.076 105.116 313.62 108.566H335.251C335.023 104.888 333.9 102.105 331.882 100.217C329.896 98.2962 327.422 97.3359 324.46 97.3359ZM324.46 85.8613C328.887 85.8613 332.875 86.6914 336.423 88.3516C339.971 90.0117 342.901 92.6322 345.212 96.2129C347.295 99.3704 348.646 103.033 349.265 107.199C349.623 109.641 349.769 113.156 349.704 117.746H313.278C313.474 123.085 315.15 126.828 318.308 128.977C320.228 130.311 322.539 130.979 325.241 130.979C328.106 130.979 330.433 130.165 332.224 128.537C333.2 127.658 334.063 126.438 334.812 124.875H349.021C348.662 128.033 347.019 131.239 344.089 134.494C339.532 139.67 333.151 142.258 324.948 142.258C318.177 142.258 312.204 140.077 307.028 135.715C301.853 131.353 299.265 124.257 299.265 114.426C299.265 105.214 301.592 98.1497 306.247 93.2344C310.935 88.319 317.006 85.8613 324.46 85.8613Z" fill="white"/>
<path d="M371.066 98.1777V88.2656H378.488V73.4219H392.258V88.2656H400.9V98.1777H392.258V126.303C392.258 128.484 392.535 129.851 393.088 130.404C393.641 130.925 395.334 131.186 398.166 131.186C398.589 131.186 399.029 131.186 399.484 131.186C399.973 131.153 400.445 131.12 400.9 131.088V141.488L394.309 141.732C387.733 141.96 383.241 140.821 380.832 138.314C379.27 136.719 378.488 134.262 378.488 130.941V98.1777H371.066Z" fill="white"/>
<path d="M425.832 97.8359C422.609 97.8359 420.103 98.8451 418.312 100.863C416.555 102.882 415.448 105.616 414.992 109.066H436.623C436.395 105.388 435.272 102.605 433.254 100.717C431.268 98.7962 428.794 97.8359 425.832 97.8359ZM425.832 86.3613C430.259 86.3613 434.247 87.1914 437.795 88.8516C441.343 90.5117 444.273 93.1322 446.584 96.7129C448.667 99.8704 450.018 103.533 450.637 107.699C450.995 110.141 451.141 113.656 451.076 118.246H414.65C414.846 123.585 416.522 127.328 419.68 129.477C421.6 130.811 423.911 131.479 426.613 131.479C429.478 131.479 431.805 130.665 433.596 129.037C434.572 128.158 435.435 126.938 436.184 125.375H450.393C450.035 128.533 448.391 131.739 445.461 134.994C440.904 140.17 434.523 142.758 426.32 142.758C419.549 142.758 413.576 140.577 408.4 136.215C403.225 131.853 400.637 124.757 400.637 114.926C400.637 105.714 402.964 98.6497 407.619 93.7344C412.307 88.819 418.378 86.3613 425.832 86.3613Z" fill="white"/>
<path d="M514.973 86.6055C517.316 86.6055 519.628 87.0612 521.906 87.9727C524.185 88.8841 526.252 90.4792 528.107 92.7578C529.605 94.6133 530.614 96.8919 531.135 99.5938C531.46 101.384 531.623 104.005 531.623 107.455L531.525 141H517.268V107.113C517.268 105.095 516.942 103.435 516.291 102.133C515.054 99.6589 512.775 98.4219 509.455 98.4219C505.614 98.4219 502.961 100.017 501.496 103.207C500.747 104.9 500.373 106.934 500.373 109.311V141H486.359V109.311C486.359 106.153 486.034 103.858 485.383 102.426C484.211 99.8542 481.916 98.5684 478.498 98.5684C474.527 98.5684 471.857 99.8542 470.49 102.426C469.742 103.891 469.367 106.072 469.367 108.969V141H455.256V87.875H468.781V95.6387C470.507 92.8717 472.134 90.9023 473.664 89.7305C476.366 87.6471 479.865 86.6055 484.162 86.6055C488.231 86.6055 491.519 87.5007 494.025 89.291C496.044 90.9512 497.574 93.0833 498.615 95.6875C500.438 92.5625 502.701 90.2676 505.402 88.8027C508.267 87.3379 511.457 86.6055 514.973 86.6055Z" fill="white"/>
<path d="M576.135 114.389C576.135 110.287 575.191 106.658 573.303 103.5C571.447 100.342 568.42 98.7637 564.221 98.7637C559.175 98.7637 555.708 101.156 553.82 105.941C552.844 108.48 552.355 111.703 552.355 115.609C552.355 121.794 553.999 126.14 557.287 128.646C559.24 130.111 561.551 130.844 564.221 130.844C568.094 130.844 571.04 129.346 573.059 126.352C575.109 123.357 576.135 119.369 576.135 114.389ZM568.225 86.6055C574.442 86.6055 579.699 88.9004 583.996 93.4902C588.326 98.0801 590.49 104.818 590.49 113.705C590.49 123.08 588.374 130.225 584.143 135.141C579.943 140.056 574.523 142.514 567.883 142.514C563.651 142.514 560.135 141.456 557.336 139.34C555.806 138.168 554.309 136.459 552.844 134.213V161.947H538.701V87.7773H552.404V95.6387C553.902 93.3275 555.497 91.5046 557.189 90.1699C560.282 87.7936 563.96 86.6055 568.225 86.6055Z" fill="white"/>
<path d="M619.475 131.186C623.544 131.186 626.669 129.737 628.85 126.84C631.031 123.943 632.121 119.825 632.121 114.486C632.121 109.148 631.031 105.046 628.85 102.182C626.669 99.2845 623.544 97.8359 619.475 97.8359C615.406 97.8359 612.264 99.2845 610.051 102.182C607.87 105.046 606.779 109.148 606.779 114.486C606.779 119.825 607.87 123.943 610.051 126.84C612.264 129.737 615.406 131.186 619.475 131.186ZM646.721 114.486C646.721 122.299 644.475 128.988 639.982 134.555C635.49 140.089 628.671 142.855 619.523 142.855C610.376 142.855 603.557 140.089 599.064 134.555C594.572 128.988 592.326 122.299 592.326 114.486C592.326 106.804 594.572 100.147 599.064 94.5156C603.557 88.8841 610.376 86.0684 619.523 86.0684C628.671 86.0684 635.49 88.8841 639.982 94.5156C644.475 100.147 646.721 106.804 646.721 114.486Z" fill="white"/>
<path d="M680.637 86.5078C680.897 86.5078 681.109 86.5241 681.271 86.5566C681.467 86.5566 681.874 86.5729 682.492 86.6055V100.863C681.613 100.766 680.832 100.701 680.148 100.668C679.465 100.635 678.911 100.619 678.488 100.619C672.889 100.619 669.13 102.442 667.209 106.088C666.135 108.139 665.598 111.296 665.598 115.561V141H651.584V87.7773H664.865V97.0547C667.014 93.5065 668.885 91.0814 670.48 89.7793C673.085 87.5983 676.47 86.5078 680.637 86.5078Z" fill="white"/>
<path d="M715.041 115.121C714.162 115.674 713.267 116.13 712.355 116.488C711.477 116.814 710.256 117.123 708.693 117.416L705.568 118.002C702.639 118.523 700.539 119.158 699.27 119.906C697.121 121.176 696.047 123.145 696.047 125.814C696.047 128.191 696.698 129.916 698 130.99C699.335 132.032 700.946 132.553 702.834 132.553C705.829 132.553 708.579 131.674 711.086 129.916C713.625 128.158 714.943 124.952 715.041 120.297V115.121ZM706.594 108.627C709.165 108.301 711.005 107.895 712.111 107.406C714.097 106.56 715.09 105.242 715.09 103.451C715.09 101.27 714.325 99.7728 712.795 98.959C711.298 98.1126 709.084 97.6895 706.154 97.6895C702.867 97.6895 700.539 98.5033 699.172 100.131C698.195 101.335 697.544 102.963 697.219 105.014H683.791C684.084 100.359 685.386 96.5339 687.697 93.5391C691.376 88.8516 697.691 86.5078 706.643 86.5078C712.469 86.5078 717.645 87.6634 722.17 89.9746C726.695 92.2858 728.957 96.6478 728.957 103.061V127.475C728.957 129.167 728.99 131.218 729.055 133.627C729.152 135.45 729.429 136.687 729.885 137.338C730.34 137.989 731.024 138.526 731.936 138.949V141H716.799C716.376 139.926 716.083 138.917 715.92 137.973C715.757 137.029 715.627 135.954 715.529 134.75C713.609 136.833 711.395 138.607 708.889 140.072C705.894 141.798 702.508 142.66 698.732 142.66C693.915 142.66 689.927 141.293 686.77 138.559C683.645 135.792 682.082 131.885 682.082 126.84C682.082 120.297 684.605 115.561 689.65 112.631C692.417 111.036 696.486 109.896 701.857 109.213L706.594 108.627Z" fill="white"/>
<path d="M765.266 86.5078C765.526 86.5078 765.738 86.5241 765.9 86.5566C766.096 86.5566 766.503 86.5729 767.121 86.6055V100.863C766.242 100.766 765.461 100.701 764.777 100.668C764.094 100.635 763.54 100.619 763.117 100.619C757.518 100.619 753.758 102.442 751.838 106.088C750.764 108.139 750.227 111.296 750.227 115.561V141H736.213V87.7773H749.494V97.0547C751.643 93.5065 753.514 91.0814 755.109 89.7793C757.714 87.5983 761.099 86.5078 765.266 86.5078Z" fill="white"/>
<path d="M552.842 177.43H538.73V164.588H552.842V177.43ZM538.73 183.777H552.842V237H538.73V183.777Z" fill="white"/>
<path d="M590.859 182.508C596.361 182.508 600.853 183.956 604.336 186.854C607.852 189.718 609.609 194.487 609.609 201.16V237H595.352V204.627C595.352 201.827 594.977 199.679 594.229 198.182C592.861 195.447 590.257 194.08 586.416 194.08C581.696 194.08 578.457 196.082 576.699 200.086C575.788 202.202 575.332 204.904 575.332 208.191V237H561.465V183.875H574.893V191.639C576.683 188.904 578.376 186.935 579.971 185.73C582.835 183.582 586.465 182.508 590.859 182.508Z" fill="white"/>
<path d="M637.129 182.508C640.352 182.508 643.216 183.224 645.723 184.656C648.229 186.056 650.264 188.009 651.826 190.516V165.125H665.938V237H652.412V229.627C650.426 232.785 648.164 235.079 645.625 236.512C643.086 237.944 639.928 238.66 636.152 238.66C629.935 238.66 624.694 236.154 620.43 231.141C616.198 226.095 614.082 219.633 614.082 211.756C614.082 202.674 616.165 195.529 620.332 190.32C624.531 185.112 630.13 182.508 637.129 182.508ZM640.156 226.941C644.095 226.941 647.09 225.477 649.141 222.547C651.191 219.617 652.217 215.825 652.217 211.17C652.217 204.66 650.573 200.005 647.285 197.205C645.267 195.512 642.923 194.666 640.254 194.666C636.185 194.666 633.19 196.212 631.27 199.305C629.382 202.365 628.438 206.173 628.438 210.73C628.438 215.646 629.398 219.585 631.318 222.547C633.271 225.477 636.217 226.941 640.156 226.941Z" fill="white"/>
<path d="M687.939 177.43H673.828V164.588H687.939V177.43ZM673.828 183.777H687.939V237H673.828V183.777Z" fill="white"/>
<path d="M707.305 220.008C707.598 222.482 708.232 224.24 709.209 225.281C710.934 227.137 714.124 228.064 718.779 228.064C721.514 228.064 723.678 227.658 725.273 226.844C726.901 226.03 727.715 224.809 727.715 223.182C727.715 221.619 727.064 220.431 725.762 219.617C724.46 218.803 719.626 217.404 711.26 215.418C705.238 213.921 700.99 212.049 698.516 209.803C696.042 207.589 694.805 204.399 694.805 200.232C694.805 195.317 696.725 191.102 700.566 187.586C704.44 184.038 709.876 182.264 716.875 182.264C723.516 182.264 728.919 183.598 733.086 186.268C737.285 188.904 739.694 193.478 740.312 199.988H726.396C726.201 198.198 725.697 196.782 724.883 195.74C723.353 193.852 720.749 192.908 717.07 192.908C714.043 192.908 711.878 193.38 710.576 194.324C709.307 195.268 708.672 196.375 708.672 197.645C708.672 199.24 709.355 200.395 710.723 201.111C712.09 201.86 716.924 203.146 725.225 204.969C730.758 206.271 734.909 208.24 737.676 210.877C740.41 213.546 741.777 216.883 741.777 220.887C741.777 226.16 739.808 230.473 735.869 233.826C731.963 237.146 725.908 238.807 717.705 238.807C709.339 238.807 703.154 237.049 699.15 233.533C695.179 229.985 693.193 225.477 693.193 220.008H707.305Z" fill="white"/>
<path d="M783.799 210.389C783.799 206.287 782.855 202.658 780.967 199.5C779.111 196.342 776.084 194.764 771.885 194.764C766.839 194.764 763.372 197.156 761.484 201.941C760.508 204.48 760.02 207.703 760.02 211.609C760.02 217.794 761.663 222.14 764.951 224.646C766.904 226.111 769.215 226.844 771.885 226.844C775.758 226.844 778.704 225.346 780.723 222.352C782.773 219.357 783.799 215.369 783.799 210.389ZM775.889 182.605C782.106 182.605 787.363 184.9 791.66 189.49C795.99 194.08 798.154 200.818 798.154 209.705C798.154 219.08 796.038 226.225 791.807 231.141C787.607 236.056 782.188 238.514 775.547 238.514C771.315 238.514 767.799 237.456 765 235.34C763.47 234.168 761.973 232.459 760.508 230.213V257.947H746.738V183.777H760.068V191.639C761.566 189.327 763.161 187.505 764.854 186.17C767.946 183.794 771.624 182.605 775.889 182.605Z" fill="white"/>
<path d="M827.139 227.186C831.208 227.186 834.333 225.737 836.514 222.84C838.695 219.943 839.785 215.825 839.785 210.486C839.785 205.148 838.695 201.046 836.514 198.182C834.333 195.285 831.208 193.836 827.139 193.836C823.07 193.836 819.928 195.285 817.715 198.182C815.534 201.046 814.443 205.148 814.443 210.486C814.443 215.825 815.534 219.943 817.715 222.84C819.928 225.737 823.07 227.186 827.139 227.186ZM854.385 210.486C854.385 218.299 852.139 224.988 847.646 230.555C843.154 236.089 836.335 238.855 827.188 238.855C818.04 238.855 811.221 236.089 806.729 230.555C802.236 224.988 799.99 218.299 799.99 210.486C799.99 202.804 802.236 196.147 806.729 190.516C811.221 184.884 818.04 182.068 827.188 182.068C836.335 182.068 843.154 184.884 847.646 190.516C852.139 196.147 854.385 202.804 854.385 210.486Z" fill="white"/>
<path d="M888.887 182.508C894.388 182.508 898.88 183.956 902.363 186.854C905.879 189.718 907.637 194.487 907.637 201.16V237H893.379V204.627C893.379 201.827 893.005 199.679 892.256 198.182C890.889 195.447 888.285 194.08 884.443 194.08C879.723 194.08 876.484 196.082 874.727 200.086C873.815 202.202 873.359 204.904 873.359 208.191V237H859.492V183.875H872.92V191.639C874.71 188.904 876.403 186.935 877.998 185.73C880.863 183.582 884.492 182.508 888.887 182.508Z" fill="white"/>
<path d="M929.834 177.43H915.723V164.588H929.834V177.43ZM915.723 183.777H929.834V237H915.723V183.777Z" fill="white"/>
<path d="M967.119 182.605C974.118 182.605 979.587 185.128 983.525 190.174C987.497 195.219 989.482 201.73 989.482 209.705C989.482 217.973 987.529 224.826 983.623 230.262C979.717 235.698 974.264 238.416 967.266 238.416C962.871 238.416 959.339 237.537 956.67 235.779C955.075 234.738 953.35 232.915 951.494 230.311V237H937.871V165.125H951.738V190.711C953.496 188.237 955.433 186.349 957.549 185.047C960.055 183.419 963.245 182.605 967.119 182.605ZM963.555 226.941C967.135 226.941 969.919 225.493 971.904 222.596C973.89 219.699 974.883 215.89 974.883 211.17C974.883 207.394 974.395 204.269 973.418 201.795C971.562 197.107 968.145 194.764 963.164 194.764C958.118 194.764 954.652 197.059 952.764 201.648C951.787 204.09 951.299 207.247 951.299 211.121C951.299 215.678 952.308 219.454 954.326 222.449C956.344 225.444 959.421 226.941 963.555 226.941Z" fill="white"/>
<path d="M1008.8 177.43H994.688V164.588H1008.8V177.43ZM994.688 183.777H1008.8V237H994.688V183.777Z" fill="white"/>
<path d="M1031.53 237H1017.62V165.027H1031.53V237Z" fill="white"/>
<path d="M1069.5 211.121C1068.62 211.674 1067.73 212.13 1066.82 212.488C1065.94 212.814 1064.72 213.123 1063.15 213.416L1060.03 214.002C1057.1 214.523 1055 215.158 1053.73 215.906C1051.58 217.176 1050.51 219.145 1050.51 221.814C1050.51 224.191 1051.16 225.916 1052.46 226.99C1053.8 228.032 1055.41 228.553 1057.29 228.553C1060.29 228.553 1063.04 227.674 1065.55 225.916C1068.09 224.158 1069.4 220.952 1069.5 216.297V211.121ZM1061.05 204.627C1063.63 204.301 1065.47 203.895 1066.57 203.406C1068.56 202.56 1069.55 201.242 1069.55 199.451C1069.55 197.27 1068.79 195.773 1067.26 194.959C1065.76 194.113 1063.54 193.689 1060.62 193.689C1057.33 193.689 1055 194.503 1053.63 196.131C1052.66 197.335 1052.01 198.963 1051.68 201.014H1038.25C1038.54 196.359 1039.85 192.534 1042.16 189.539C1045.84 184.852 1052.15 182.508 1061.1 182.508C1066.93 182.508 1072.11 183.663 1076.63 185.975C1081.16 188.286 1083.42 192.648 1083.42 199.061V223.475C1083.42 225.167 1083.45 227.218 1083.52 229.627C1083.61 231.45 1083.89 232.687 1084.35 233.338C1084.8 233.989 1085.49 234.526 1086.4 234.949V237H1071.26C1070.84 235.926 1070.54 234.917 1070.38 233.973C1070.22 233.029 1070.09 231.954 1069.99 230.75C1068.07 232.833 1065.86 234.607 1063.35 236.072C1060.35 237.798 1056.97 238.66 1053.19 238.66C1048.38 238.66 1044.39 237.293 1041.23 234.559C1038.11 231.792 1036.54 227.885 1036.54 222.84C1036.54 216.297 1039.07 211.561 1044.11 208.631C1046.88 207.036 1050.95 205.896 1056.32 205.213L1061.05 204.627ZM1079.22 160.73C1078.8 165.711 1077.14 169.389 1074.24 171.766C1071.34 174.109 1067.39 175.281 1062.37 175.281C1057.36 175.281 1053.4 174.109 1050.51 171.766C1047.61 169.389 1045.95 165.711 1045.53 160.73H1052.12C1052.57 163.725 1054.14 165.76 1056.81 166.834C1058.3 167.452 1060.16 167.762 1062.37 167.762C1064.59 167.762 1066.44 167.452 1067.94 166.834C1070.61 165.76 1072.17 163.725 1072.63 160.73H1079.22Z" fill="white"/>
</svg>
