<svg width="25" height="25" viewBox="0 0 25 25" fill="none" xmlns="http://www.w3.org/2000/svg">
<path fill-rule="evenodd" clip-rule="evenodd" d="M11.2889 15.1513L15.9775 22.758C16.1826 23.0914 16.5032 23.0875 16.6327 23.0696C16.7622 23.0516 17.0737 22.9721 17.1865 22.5939L23.0496 2.79182C23.1522 2.4418 22.9637 2.20333 22.8791 2.11871C22.797 2.03409 22.5624 1.85332 22.2226 1.94947L2.40644 7.75228C2.03078 7.86254 1.94873 8.17794 1.93078 8.30743C1.91283 8.43949 1.9077 8.76642 2.23977 8.9754L9.93367 13.7871L16.7314 6.91763C17.1045 6.54069 17.7135 6.53684 18.0917 6.90994C18.4699 7.28303 18.4725 7.89331 18.0994 8.27025L11.2889 15.1513ZM16.5327 25.0004C15.6403 25.0004 14.8223 24.5466 14.3403 23.767L9.36955 15.7013L1.22049 10.605C0.342251 10.0549 -0.116742 9.07541 0.0255715 8.04588C0.166603 7.01635 0.873042 6.19837 1.86539 5.90733L21.6816 0.104527C22.5932 -0.162151 23.5701 0.0904236 24.242 0.759682C24.9138 1.43535 25.1638 2.42257 24.892 3.33799L19.0289 23.1388C18.7353 24.135 17.9148 24.8389 16.8878 24.9761C16.7673 24.9915 16.6506 25.0004 16.5327 25.0004Z" fill="#A7FF4F"/>
</svg>
