<svg width="621" height="296" viewBox="0 0 621 296" fill="none" xmlns="http://www.w3.org/2000/svg">
<path d="M125.436 186.43V56.1898L33.3159 186.43H125.436ZM126.038 288.174V217.936H0V182.617L131.658 0H162.164V186.43H204.511V217.936H162.164V288.174H126.038Z" fill="#A7FF4F"/>
<path d="M308.995 0.802712C346.191 0.802712 373.084 16.1211 389.675 46.758C402.52 70.438 408.942 102.881 408.942 144.087C408.942 183.152 403.122 215.461 391.482 241.014C374.623 277.671 347.06 296 308.794 296C274.274 296 248.585 281.016 231.726 251.048C217.677 226.03 210.653 192.45 210.653 150.308C210.653 117.664 214.867 89.6362 223.297 66.2237C239.085 22.6097 267.651 0.802712 308.995 0.802712ZM308.593 263.089C327.325 263.089 342.244 254.794 353.349 238.205C364.454 221.615 370.007 190.711 370.007 145.492C370.007 112.848 365.993 86.024 357.965 65.0197C349.937 43.8816 334.35 33.3125 311.202 33.3125C289.928 33.3125 274.341 43.3464 264.44 63.4142C254.672 83.3483 249.789 112.781 249.789 151.713C249.789 181.012 252.933 204.558 259.222 222.351C268.855 249.51 285.312 263.089 308.593 263.089Z" fill="#A7FF4F"/>
<path d="M541.925 186.43V56.1898L449.805 186.43H541.925ZM542.527 288.174V217.936H416.489V182.617L548.147 0H578.653V186.43H621V217.936H578.653V288.174H542.527Z" fill="#A7FF4F"/>
</svg>
